<svg width="40" height="40" viewBox="0 0 40 40" fill="none" xmlns="http://www.w3.org/2000/svg">
<path d="M15 36.6666C15.9205 36.6666 16.6667 35.9204 16.6667 34.9999C16.6667 34.0794 15.9205 33.3333 15 33.3333C14.0796 33.3333 13.3334 34.0794 13.3334 34.9999C13.3334 35.9204 14.0796 36.6666 15 36.6666Z" stroke="#1B4A58" stroke-width="2" stroke-linecap="round" stroke-linejoin="round"/>
<path d="M33.3333 36.6666C34.2538 36.6666 35 35.9204 35 34.9999C35 34.0794 34.2538 33.3333 33.3333 33.3333C32.4128 33.3333 31.6666 34.0794 31.6666 34.9999C31.6666 35.9204 32.4128 36.6666 33.3333 36.6666Z" stroke="#1B4A58" stroke-width="2" stroke-linecap="round" stroke-linejoin="round"/>
<path d="M1.66663 1.66675H8.33329L12.8 23.9834C12.9524 24.7507 13.3698 25.44 13.9792 25.9306C14.5886 26.4211 15.3511 26.6817 16.1333 26.6667H32.3333C33.1155 26.6817 33.878 26.4211 34.4874 25.9306C35.0968 25.44 35.5142 24.7507 35.6666 23.9834L38.3333 10.0001H9.99996" stroke="#1B4A58" stroke-width="2" stroke-linecap="round" stroke-linejoin="round"/>
</svg>
