<svg width="38" height="38" viewBox="0 0 38 38" fill="none" xmlns="http://www.w3.org/2000/svg">
<path d="M30.875 22.1667V17.4584C30.875 15.5728 30.875 14.6299 30.2892 14.0442C29.7034 13.4584 28.7606 13.4584 26.875 13.4584H21.4485C20.631 13.4584 20.2222 13.4584 19.8547 13.3061C19.4871 13.1539 19.1981 12.8649 18.6201 12.2868L16.2132 9.87995C15.6351 9.30189 15.3461 9.01286 14.9786 8.86061C14.611 8.70837 14.2023 8.70837 13.3848 8.70837H9.54163C7.65601 8.70837 6.7132 8.70837 6.12741 9.29416C5.54163 9.87995 5.54163 10.8228 5.54163 12.7084V25.2917C5.54163 27.1773 5.54163 28.1201 6.12741 28.7059C6.7132 29.2917 7.65601 29.2917 9.54163 29.2917H23.75" stroke="#1B4A58"/>
<path d="M26.9166 29.2917H30.875M30.875 29.2917H34.8333M30.875 29.2917V33.25M30.875 29.2917V25.3334" stroke="#1B4A58"/>
</svg>
