<svg width="38" height="38" viewBox="0 0 38 38" fill="none" xmlns="http://www.w3.org/2000/svg">
<path d="M4.75 14.6666C4.75 13.7238 4.75 13.2524 5.04289 12.9595C5.33579 12.6666 5.80719 12.6666 6.75 12.6666H31.25C32.1928 12.6666 32.6642 12.6666 32.9571 12.9595C33.25 13.2524 33.25 13.7238 33.25 14.6666V18.5833C33.25 19.5261 33.25 19.9975 32.9571 20.2904C32.6642 20.5833 32.1928 20.5833 31.25 20.5833H30.5C29.5572 20.5833 29.0858 20.5833 28.7929 20.8762C28.5 21.1691 28.5 21.6405 28.5 22.5833V29.6666C28.5 30.6094 28.5 31.0808 28.2071 31.3737C27.9142 31.6666 27.4428 31.6666 26.5 31.6666H11.5C10.5572 31.6666 10.0858 31.6666 9.79289 31.3737C9.5 31.0808 9.5 30.6094 9.5 29.6666V22.5833C9.5 21.6405 9.5 21.1691 9.20711 20.8762C8.91421 20.5833 8.44281 20.5833 7.5 20.5833H6.75C5.80719 20.5833 5.33579 20.5833 5.04289 20.2904C4.75 19.9975 4.75 19.5261 4.75 18.5833V14.6666Z" stroke="#1D4C5E"/>
<path d="M7.91663 20.5834H30.0833" stroke="#1D4C5E" stroke-linecap="round"/>
<path d="M19 11.0834L19 31.6667" stroke="#1D4C5E" stroke-linecap="round"/>
<path d="M19 11.0833L16.8778 8.96118C15.6703 7.75365 14.1982 6.84386 12.5781 6.30384L10.5491 5.62749C9.25402 5.1958 7.91663 6.15974 7.91663 7.52485V9.64181C7.91663 10.5027 8.46749 11.267 9.28417 11.5392L12.6666 12.6667" stroke="#1D4C5E" stroke-linecap="round"/>
<path d="M19 11.0833L21.1222 8.96118C22.3297 7.75365 23.8018 6.84386 25.4219 6.30384L27.4509 5.62749C28.746 5.1958 30.0834 6.15974 30.0834 7.52485V9.64181C30.0834 10.5027 29.5325 11.267 28.7158 11.5392L25.3334 12.6667" stroke="#1D4C5E" stroke-linecap="round"/>
</svg>
