<svg width="18" height="18" viewBox="0 0 18 18" fill="none" xmlns="http://www.w3.org/2000/svg">
<path d="M6.65811 16.7806L6.81622 17.255H6.81622L6.65811 16.7806ZM11.6581 15.114L11.8162 15.5883H11.8162L11.6581 15.114ZM16.7071 4.29289L17.0607 4.64645L16.7071 4.29289ZM12.2929 8.70711L11.9393 8.35356L12.2929 8.70711ZM2 1.5H16V0.5H2V1.5ZM1.5 3.58579V2H0.5V3.58579H1.5ZM6.06065 8.35355L1.64645 3.93934L0.93934 4.64645L5.35355 9.06065L6.06065 8.35355ZM5.49999 9.41421V16.3063H6.49999V9.41421H5.49999ZM5.49999 16.3063C5.49999 16.9888 6.16869 17.4708 6.81622 17.255L6.49999 16.3063V16.3063H5.49999ZM6.81622 17.255L11.8162 15.5883L11.5 14.6396L6.49999 16.3063L6.81622 17.255ZM11.8162 15.5883C12.2246 15.4522 12.5 15.0701 12.5 14.6396H11.5L11.8162 15.5883ZM12.5 14.6396V9.41422H11.5V14.6396H12.5ZM16.3536 3.93934L11.9393 8.35356L12.6464 9.06067L17.0607 4.64645L16.3536 3.93934ZM16.5 2V3.58579H17.5V2H16.5ZM17.0607 4.64645C17.342 4.36514 17.5 3.98361 17.5 3.58579H16.5C16.5 3.71839 16.4473 3.84557 16.3536 3.93934L17.0607 4.64645ZM12.5 9.41422C12.5 9.28161 12.5527 9.15444 12.6464 9.06067L11.9393 8.35356C11.658 8.63486 11.5 9.0164 11.5 9.41422H12.5ZM5.35355 9.06065C5.44731 9.15442 5.49999 9.2816 5.49999 9.41421H6.49999C6.49999 9.01638 6.34196 8.63485 6.06065 8.35355L5.35355 9.06065ZM0.5 3.58579C0.5 3.98361 0.658035 4.36514 0.93934 4.64645L1.64645 3.93934C1.55268 3.84557 1.5 3.71839 1.5 3.58579H0.5ZM16 1.5C16.2761 1.5 16.5 1.72386 16.5 2H17.5C17.5 1.17157 16.8284 0.5 16 0.5V1.5ZM2 0.5C1.17157 0.5 0.5 1.17157 0.5 2H1.5C1.5 1.72386 1.72386 1.5 2 1.5V0.5Z" fill="white"/>
</svg>
