<svg width="38" height="30" viewBox="0 0 38 30" fill="none" xmlns="http://www.w3.org/2000/svg">
<path d="M21.4184 25.5589C20.9235 23.9641 19.833 22.5549 18.3161 21.5499C16.7992 20.5448 14.9406 20 13.0286 20C11.1166 20 9.25799 20.5448 7.74108 21.5498C6.22417 22.5549 5.13372 23.9641 4.63885 25.5589" stroke="#1B4A58" stroke-width="1.2" stroke-linecap="round"/>
<ellipse cx="13.0285" cy="10" rx="4.34286" ry="5" fill="#7E869E" fill-opacity="0.25" stroke="#1B4A58" stroke-width="1.2" stroke-linecap="round"/>
<path d="M33.3612 25.5589C32.8664 23.9641 31.7759 22.5549 30.259 21.5499C28.7421 20.5448 26.8835 20 24.9715 20C23.0595 20 21.2009 20.5448 19.684 21.5498C18.167 22.5549 17.0766 23.9641 16.5817 25.5589" stroke="#1B4A58" stroke-width="1.2" stroke-linecap="round"/>
<ellipse cx="24.9714" cy="10" rx="4.34286" ry="5" fill="#7E869E" fill-opacity="0.25" stroke="#1B4A58" stroke-width="1.2" stroke-linecap="round"/>
</svg>
