<svg width="28" height="27" viewBox="0 0 28 27" fill="none" xmlns="http://www.w3.org/2000/svg">
<path d="M26.949 14.1712H27.5138H26.949ZM24.9119 7.09525L25.3725 7.42209L24.9119 7.09525ZM24.1091 7.89804L23.7823 7.4374L24.1091 7.89804ZM18.8076 19.4885L18.4082 19.8879L18.8076 19.4885ZM18.8076 14.5021L18.4082 14.1027L18.8076 14.5021ZM26.6181 8.85395L26.2187 9.25333L26.6181 8.85395ZM24.6897 25.4675V24.9027V25.4675ZM6.05084 25.4675V26.0323V25.4675ZM1.53413 5.24508L0.969622 5.26356L1.53413 5.24508ZM4.81033 8.52127L4.79185 9.08578L4.81033 8.52127ZM25.299 1.56707L24.9721 2.02772L25.299 1.56707ZM25.4328 1.70087L24.9721 2.02772L25.4328 1.70087ZM1.53413 4.74091L2.09865 4.75939L1.53413 4.74091ZM4.81033 1.46471L4.82881 2.02923L4.81033 1.46471ZM5.06241 2.02772L24.5283 2.02772V0.898085L5.06241 0.898085V2.02772ZM6.05084 26.0323L24.6897 26.0323V24.9027L6.05084 24.9027V26.0323ZM0.967505 4.99299L0.967505 20.949H2.09713L2.09713 4.99299H0.967505ZM24.6897 7.95827L5.06241 7.95827V9.0879L24.6897 9.0879V7.95827ZM26.3842 19.8194L26.3842 23.2083L27.5138 23.2083L27.5138 19.8194H26.3842ZM26.3842 10.7823L26.3842 14.1712H27.5138L27.5138 10.7823H26.3842ZM17.9119 16.4305V17.5601H19.0416V16.4305H17.9119ZM20.736 20.3842H26.949V19.2546H20.736V20.3842ZM26.3842 14.1712L26.3842 19.8194H27.5138L27.5138 14.1712H26.3842ZM26.949 13.6064L20.736 13.6064V14.736L26.949 14.736L26.949 13.6064ZM19.4854 7.95827H18.4768L18.4768 9.0879H19.4854V7.95827ZM24.9721 2.4715C24.9721 3.73145 24.9714 4.63187 24.8972 5.32895C24.824 6.01579 24.6849 6.43918 24.4513 6.76841L25.3725 7.42209C25.764 6.8704 25.9373 6.22952 26.0204 5.44853C26.1025 4.67777 26.1018 3.70676 26.1018 2.4715H24.9721ZM19.4854 9.0879C20.7206 9.0879 21.6916 9.08865 22.4624 9.0066C23.2434 8.92345 23.8843 8.75013 24.4359 8.35868L23.7823 7.4374C23.453 7.671 23.0296 7.81019 22.3428 7.88331C21.6457 7.95752 20.7453 7.95827 19.4854 7.95827V9.0879ZM24.4513 6.76841C24.2675 7.02744 24.0413 7.25361 23.7823 7.4374L24.4359 8.35868C24.7986 8.10137 25.1152 7.78473 25.3725 7.42209L24.4513 6.76841ZM17.9119 17.5601C17.9119 18.0767 17.9107 18.5209 17.9583 18.8749C18.0081 19.2451 18.1204 19.6 18.4082 19.8879L19.207 19.0891C19.164 19.0461 19.1108 18.9694 19.0779 18.7244C19.0428 18.4631 19.0416 18.1086 19.0416 17.5601H17.9119ZM20.736 19.2546C20.1875 19.2546 19.833 19.2534 19.5718 19.2182C19.3268 19.1853 19.25 19.1321 19.207 19.0891L18.4082 19.8879C18.6961 20.1758 19.051 20.288 19.4212 20.3378C19.7752 20.3854 20.2195 20.3842 20.736 20.3842V19.2546ZM19.0416 16.4305C19.0416 15.882 19.0428 15.5275 19.0779 15.2662C19.1108 15.0213 19.164 14.9445 19.207 14.9015L18.4082 14.1027C18.1204 14.3906 18.0081 14.7455 17.9583 15.1157C17.9107 15.4697 17.9119 15.9139 17.9119 16.4305H19.0416ZM20.736 13.6064C20.2195 13.6064 19.7752 13.6052 19.4212 13.6528C19.051 13.7026 18.6961 13.8148 18.4082 14.1027L19.207 14.9015C19.25 14.8585 19.3268 14.8053 19.5718 14.7724C19.833 14.7372 20.1875 14.736 20.736 14.736V13.6064ZM24.6897 9.0879C25.2382 9.0879 25.5927 9.0891 25.854 9.12422C26.0989 9.15716 26.1757 9.21033 26.2187 9.25333L27.0175 8.45456C26.7296 8.1667 26.3747 8.05444 26.0045 8.00467C25.6505 7.95707 25.2063 7.95827 24.6897 7.95827V9.0879ZM27.5138 10.7823C27.5138 10.2658 27.515 9.82157 27.4674 9.46757C27.4176 9.09733 27.3054 8.74243 27.0175 8.45456L26.2187 9.25333C26.2617 9.29633 26.3149 9.37311 26.3478 9.61809C26.383 9.87932 26.3842 10.2339 26.3842 10.7823H27.5138ZM24.6897 26.0323C25.2063 26.0323 25.6505 26.0335 26.0045 25.9859C26.3747 25.9362 26.7296 25.8239 27.0175 25.5361L26.2187 24.7373C26.1757 24.7803 26.0989 24.8335 25.854 24.8664C25.5927 24.9015 25.2382 24.9027 24.6897 24.9027V26.0323ZM26.3842 23.2083C26.3842 23.7567 26.383 24.1113 26.3478 24.3725C26.3149 24.6175 26.2617 24.6943 26.2187 24.7373L27.0175 25.5361C27.3054 25.2482 27.4176 24.8933 27.4674 24.523C27.515 24.169 27.5138 23.7248 27.5138 23.2083L26.3842 23.2083ZM6.05084 24.9027C4.96984 24.9027 4.21592 24.9015 3.64708 24.825C3.09448 24.7507 2.80185 24.6148 2.59343 24.4064L1.79466 25.2052C2.24795 25.6585 2.8187 25.8535 3.49656 25.9446C4.15817 26.0335 5.00178 26.0323 6.05084 26.0323V24.9027ZM0.967505 20.949C0.967505 21.9981 0.966305 22.8417 1.05526 23.5033C1.14639 24.1812 1.34136 24.7519 1.79466 25.2052L2.59343 24.4064C2.385 24.198 2.24911 23.9054 2.17481 23.3528C2.09833 22.7839 2.09713 22.03 2.09713 20.949H0.967505ZM0.967505 4.99299C0.967505 5.11963 0.967428 5.19657 0.969622 5.26356L2.09865 5.2266C2.09721 5.18274 2.09713 5.12857 2.09713 4.99299H0.967505ZM5.06241 7.95827C4.92684 7.95827 4.87267 7.95819 4.82881 7.95676L4.79185 9.08578C4.85884 9.08798 4.93578 9.0879 5.06241 9.0879V7.95827ZM0.969622 5.26356C1.03778 7.34563 2.70978 9.01762 4.79185 9.08578L4.82881 7.95676C3.34161 7.90807 2.14733 6.71379 2.09865 5.2266L0.969622 5.26356ZM24.5283 2.02772C24.7486 2.02772 24.8693 2.02846 24.9548 2.03756C25.03 2.04557 25.0099 2.05455 24.9721 2.02772L25.6258 1.10643C25.4412 0.975424 25.2437 0.932314 25.0743 0.91428C24.9152 0.897337 24.7239 0.898085 24.5283 0.898085V2.02772ZM26.1018 2.4715C26.1018 2.27591 26.1025 2.08466 26.0856 1.9255C26.0675 1.7561 26.0244 1.55867 25.8934 1.37403L24.9721 2.02772C24.9453 1.98989 24.9543 1.96984 24.9623 2.04508C24.9714 2.13056 24.9721 2.25122 24.9721 2.4715H26.1018ZM24.9721 2.02772L25.8934 1.37403C25.8199 1.27042 25.7294 1.17995 25.6258 1.10643L24.9721 2.02772ZM2.09713 4.99299C2.09713 4.85742 2.09721 4.80325 2.09865 4.75939L0.969622 4.72243C0.967428 4.78942 0.967505 4.86636 0.967505 4.99299H2.09713ZM5.06241 0.898085C4.93578 0.898085 4.85884 0.898008 4.79185 0.900202L4.82881 2.02923C4.87267 2.02779 4.92683 2.02772 5.06241 2.02772V0.898085ZM2.09865 4.75939C2.14733 3.27219 3.34161 2.07791 4.82881 2.02923L4.79185 0.900202C2.70978 0.968361 1.03778 2.64036 0.969622 4.72243L2.09865 4.75939Z" fill="#1B4A58"/>
</svg>
